<?xml version="1.0" encoding="utf-8"?>
<!-- Generator: Adobe Illustrator 26.5.0, SVG Export Plug-In . SVG Version: 6.00 Build 0)  -->
<svg version="1.0" id="katman_1" xmlns="http://www.w3.org/2000/svg" xmlns:xlink="http://www.w3.org/1999/xlink" x="0px" y="0px"
	 viewBox="0 0 478 326" style="enable-background:new 0 0 478 326;" xml:space="preserve">
<style type="text/css">
	.st0{fill:url(#SVGID_1_);}
	.st1{fill:url(#SVGID_00000043457663437941258920000004291200280026334364_);}
	.st2{fill:#FFFFFF;}
</style>
<g>
	
		<linearGradient id="SVGID_1_" gradientUnits="userSpaceOnUse" x1="-353.8796" y1="582.5173" x2="-353.2071" y2="581.7039" gradientTransform="matrix(250 0 0 -250 88647 145717.4531)">
		<stop  offset="0" style="stop-color:#8381C5"/>
		<stop  offset="0.5664" style="stop-color:#7E55B3;stop-opacity:0.9961"/>
		<stop  offset="1" style="stop-color:#A52ECB;stop-opacity:0.9922"/>
	</linearGradient>
	<path class="st0" d="M364,163c0,69.04-55.96,125-125,125s-125-55.96-125-125S169.96,38,239,38S364,93.96,364,163z"/>
	
		<linearGradient id="SVGID_00000084502729138958850980000005692750386031106717_" gradientUnits="userSpaceOnUse" x1="-353.3649" y1="581.8738" x2="-353.9446" y2="582.5665" gradientTransform="matrix(256 0 0 -256 90780 149217.7969)">
		<stop  offset="0" style="stop-color:#411F5D"/>
		<stop  offset="1" style="stop-color:#5B2A85"/>
	</linearGradient>
	<path style="fill:url(#SVGID_00000084502729138958850980000005692750386031106717_);" d="M239,35c-70.7,0-128,57.32-128,128
		s57.3,128,128,128s128-57.32,128-128S309.7,35,239,35z M239,42.05c66.75,0,120.88,54.14,120.88,120.95S305.75,283.95,239,283.95
		S118.12,229.81,118.12,163S172.25,42.05,239,42.05z"/>
	<path class="st2" d="M196.23,252.57c0,0,10.54,0.75,24.09-0.45c5.49-0.48,26.33-2.53,41.91-5.95c0,0,19-4.07,29.16-7.81
		c10.63-3.92,16.42-7.25,19.03-11.96c-0.11-0.97,0.8-4.39-4.1-6.45c-12.54-5.26-27.08-4.31-55.85-4.92
		c-31.91-1.1-42.53-6.44-48.18-10.74c-5.42-4.36-2.7-16.44,20.54-27.07c11.7-5.66,57.58-16.11,57.58-16.11
		c-15.45-7.64-44.26-21.06-50.19-23.96c-5.19-2.54-13.51-6.37-15.31-11c-2.04-4.45,4.82-8.28,8.66-9.38
		c12.35-3.56,29.8-5.78,45.67-6.03c7.98-0.13,9.27-0.64,9.27-0.64c11.01-1.83,18.26-9.36,15.24-21.29
		c-2.71-12.18-17.01-19.33-30.59-16.85c-12.79,2.33-43.63,11.29-43.63,11.29c38.12-0.33,44.5,0.31,47.35,4.29
		c1.68,2.35-0.76,5.58-10.93,7.24c-11.07,1.81-34.07,3.98-34.07,3.98c-22.07,1.31-37.62,1.4-42.28,11.27
		c-3.05,6.45,3.25,12.15,6.01,15.72c11.66,12.97,28.5,19.96,39.34,25.11c4.08,1.94,16.05,5.6,16.05,5.6
		c-35.17-1.93-60.53,8.86-75.42,21.3c-16.83,15.57-9.39,34.12,25.1,45.55c20.37,6.75,30.47,9.92,60.84,7.19
		c17.89-0.96,20.71-0.39,20.89,1.08c0.25,2.07-19.87,7.2-25.37,8.79C233.06,244.39,196.41,252.53,196.23,252.57L196.23,252.57z"/>
</g>
</svg>
